<mxfile host="app.diagrams.net" agent="Mozilla/5.0 (Windows NT 10.0; Win64; x64) AppleWebKit/537.36 (KHTML, like Gecko) Chrome/136.0.0.0 Safari/537.36" version="27.0.3">
  <diagram name="第 1 页" id="VeTnryH_7OS704gSLsXG">
    <mxGraphModel dx="1747" dy="2701" grid="1" gridSize="10" guides="1" tooltips="1" connect="1" arrows="1" fold="1" page="1" pageScale="1" pageWidth="1169" pageHeight="1654" math="0" shadow="0">
      <root>
        <mxCell id="0" />
        <mxCell id="1" parent="0" />
        <mxCell id="user_entity" value="用户(User)" style="whiteSpace=wrap;html=1;" parent="1" vertex="1">
          <mxGeometry x="70" y="290" width="120" height="60" as="geometry" />
        </mxCell>
        <mxCell id="role_entity" value="角色(Role)" style="whiteSpace=wrap;html=1;" parent="1" vertex="1">
          <mxGeometry x="70" y="10" width="120" height="60" as="geometry" />
        </mxCell>
        <mxCell id="institution_entity" value="机构(Institution)" style="whiteSpace=wrap;html=1;" parent="1" vertex="1">
          <mxGeometry x="610" y="-120" width="120" height="60" as="geometry" />
        </mxCell>
        <mxCell id="course_entity" value="课程(Course)" style="whiteSpace=wrap;html=1;" parent="1" vertex="1">
          <mxGeometry x="610" y="250" width="120" height="60" as="geometry" />
        </mxCell>
        <mxCell id="chapter_entity" value="章节(Chapter)" style="whiteSpace=wrap;html=1;" parent="1" vertex="1">
          <mxGeometry x="970" y="250" width="120" height="60" as="geometry" />
        </mxCell>
        <mxCell id="section_entity" value="小节(Section)" style="whiteSpace=wrap;html=1;" parent="1" vertex="1">
          <mxGeometry x="970" y="560" width="120" height="60" as="geometry" />
        </mxCell>
        <mxCell id="media_entity" value="媒体(Media)" style="whiteSpace=wrap;html=1;" parent="1" vertex="1">
          <mxGeometry x="970" y="690" width="120" height="60" as="geometry" />
        </mxCell>
        <mxCell id="question_entity" value="题目(Question)" style="whiteSpace=wrap;html=1;" parent="1" vertex="1">
          <mxGeometry x="630" y="920" width="120" height="60" as="geometry" />
        </mxCell>
        <mxCell id="question_group_entity" value="题目组(QuestionGroup)" style="whiteSpace=wrap;html=1;" parent="1" vertex="1">
          <mxGeometry x="630" y="560" width="120" height="60" as="geometry" />
        </mxCell>
        <mxCell id="question_group_item_entity" value="题目组项(QuestionGroupItem)" style="whiteSpace=wrap;html=1;" parent="1" vertex="1">
          <mxGeometry x="620" y="750" width="140" height="60" as="geometry" />
        </mxCell>
        <mxCell id="user_course_entity" value="用户课程(UserCourse)" style="whiteSpace=wrap;html=1;" parent="1" vertex="1">
          <mxGeometry x="70" y="570" width="120" height="60" as="geometry" />
        </mxCell>
        <mxCell id="order_entity" value="订单(Order)" style="whiteSpace=wrap;html=1;" parent="1" vertex="1">
          <mxGeometry x="310" y="280" width="120" height="60" as="geometry" />
        </mxCell>
        <mxCell id="user_favorite_entity" value="用户收藏(UserFavorite)" style="whiteSpace=wrap;html=1;" parent="1" vertex="1">
          <mxGeometry x="300" y="-50" width="140" height="60" as="geometry" />
        </mxCell>
        <mxCell id="course_review_entity" value="课程评论(CourseReview)" style="whiteSpace=wrap;html=1;" parent="1" vertex="1">
          <mxGeometry x="290" y="180" width="140" height="60" as="geometry" />
        </mxCell>
        <mxCell id="user_wrong_question_entity" value="用户错题(UserWrongQuestion)" style="whiteSpace=wrap;html=1;" parent="1" vertex="1">
          <mxGeometry x="400" y="750" width="160" height="60" as="geometry" />
        </mxCell>
        <mxCell id="user_role_relation" value="拥有" style="rhombus;whiteSpace=wrap;html=1;" parent="1" vertex="1">
          <mxGeometry x="90" y="120" width="80" height="60" as="geometry" />
        </mxCell>
        <mxCell id="user_institution_relation" value="所属" style="rhombus;whiteSpace=wrap;html=1;" parent="1" vertex="1">
          <mxGeometry x="370" y="-120" width="80" height="60" as="geometry" />
        </mxCell>
        <mxCell id="institution_course_relation" value="发布" style="rhombus;whiteSpace=wrap;html=1;" parent="1" vertex="1">
          <mxGeometry x="630" y="130" width="80" height="60" as="geometry" />
        </mxCell>
        <mxCell id="course_chapter_relation" value="包含" style="rhombus;whiteSpace=wrap;html=1;" parent="1" vertex="1">
          <mxGeometry x="860" y="250" width="80" height="60" as="geometry" />
        </mxCell>
        <mxCell id="chapter_section_relation" value="包含" style="rhombus;whiteSpace=wrap;html=1;" parent="1" vertex="1">
          <mxGeometry x="990" y="420" width="80" height="60" as="geometry" />
        </mxCell>
        <mxCell id="section_question_group_relation" value="包含" style="rhombus;whiteSpace=wrap;html=1;" parent="1" vertex="1">
          <mxGeometry x="830" y="560" width="80" height="60" as="geometry" />
        </mxCell>
        <mxCell id="question_group_item_relation" value="组成" style="rhombus;whiteSpace=wrap;html=1;" parent="1" vertex="1">
          <mxGeometry x="650" y="670" width="80" height="40" as="geometry" />
        </mxCell>
        <mxCell id="question_group_item_question_relation" value="引用" style="rhombus;whiteSpace=wrap;html=1;" parent="1" vertex="1">
          <mxGeometry x="650" y="840" width="80" height="40" as="geometry" />
        </mxCell>
        <mxCell id="user_course_order_relation" value="购买" style="rhombus;whiteSpace=wrap;html=1;" parent="1" vertex="1">
          <mxGeometry x="330" y="390" width="80" height="60" as="geometry" />
        </mxCell>
        <mxCell id="user_learn_course_relation" value="学习" style="rhombus;whiteSpace=wrap;html=1;" parent="1" vertex="1">
          <mxGeometry x="90" y="430" width="80" height="60" as="geometry" />
        </mxCell>
        <mxCell id="user_favorite_relation" value="收藏" style="rhombus;whiteSpace=wrap;html=1;" parent="1" vertex="1">
          <mxGeometry x="330" y="70" width="80" height="60" as="geometry" />
        </mxCell>
        <mxCell id="course_review_relation" value="评论" style="rhombus;whiteSpace=wrap;html=1;" parent="1" vertex="1">
          <mxGeometry x="470" y="200" width="80" height="60" as="geometry" />
        </mxCell>
        <mxCell id="user_wrong_question_relation" value="记录" style="rhombus;whiteSpace=wrap;html=1;" parent="1" vertex="1">
          <mxGeometry x="90" y="750" width="80" height="60" as="geometry" />
        </mxCell>
        <mxCell id="wrong_question_relation" value="关联" style="rhombus;whiteSpace=wrap;html=1;" parent="1" vertex="1">
          <mxGeometry x="440" y="920" width="80" height="60" as="geometry" />
        </mxCell>
        <mxCell id="user_to_role_relation" value="n" style="endArrow=none;html=1;rounded=0;exitX=0.5;exitY=0;exitDx=0;exitDy=0;entryX=0.5;entryY=1;entryDx=0;entryDy=0;" parent="1" source="user_entity" target="user_role_relation" edge="1">
          <mxGeometry relative="1" as="geometry" />
        </mxCell>
        <mxCell id="role_to_user_relation" value="m" style="endArrow=none;html=1;rounded=0;exitX=0.5;exitY=1;exitDx=0;exitDy=0;entryX=0.5;entryY=0;entryDx=0;entryDy=0;" parent="1" source="role_entity" target="user_role_relation" edge="1">
          <mxGeometry relative="1" as="geometry" />
        </mxCell>
        <mxCell id="user_to_institution_relation" value="n" style="endArrow=none;html=1;rounded=0;entryX=0;entryY=0.5;entryDx=0;entryDy=0;exitX=1;exitY=0.25;exitDx=0;exitDy=0;" parent="1" source="user_entity" target="user_institution_relation" edge="1">
          <mxGeometry relative="1" as="geometry">
            <Array as="points">
              <mxPoint x="190" y="-90" />
            </Array>
            <mxPoint x="190" y="290" as="sourcePoint" />
          </mxGeometry>
        </mxCell>
        <mxCell id="institution_to_user_relation" value="1" style="endArrow=none;html=1;rounded=0;exitX=0;exitY=0.5;exitDx=0;exitDy=0;entryX=1;entryY=0.5;entryDx=0;entryDy=0;" parent="1" source="institution_entity" target="user_institution_relation" edge="1">
          <mxGeometry relative="1" as="geometry" />
        </mxCell>
        <mxCell id="institution_to_course_relation" value="1" style="endArrow=none;html=1;rounded=0;exitX=0.5;exitY=1;exitDx=0;exitDy=0;entryX=0.5;entryY=0;entryDx=0;entryDy=0;" parent="1" source="institution_entity" target="institution_course_relation" edge="1">
          <mxGeometry relative="1" as="geometry" />
        </mxCell>
        <mxCell id="course_to_institution_relation" value="n" style="endArrow=none;html=1;rounded=0;exitX=0.5;exitY=0;exitDx=0;exitDy=0;entryX=0.5;entryY=1;entryDx=0;entryDy=0;" parent="1" source="course_entity" target="institution_course_relation" edge="1">
          <mxGeometry relative="1" as="geometry" />
        </mxCell>
        <mxCell id="course_to_chapter_relation" value="1" style="endArrow=none;html=1;rounded=0;exitX=1;exitY=0.5;exitDx=0;exitDy=0;entryX=0;entryY=0.5;entryDx=0;entryDy=0;" parent="1" source="course_entity" target="course_chapter_relation" edge="1">
          <mxGeometry relative="1" as="geometry" />
        </mxCell>
        <mxCell id="chapter_to_course_relation" value="n" style="endArrow=none;html=1;rounded=0;exitX=0;exitY=0.5;exitDx=0;exitDy=0;entryX=1;entryY=0.5;entryDx=0;entryDy=0;" parent="1" source="chapter_entity" target="course_chapter_relation" edge="1">
          <mxGeometry relative="1" as="geometry" />
        </mxCell>
        <mxCell id="chapter_to_section_relation" value="1" style="endArrow=none;html=1;rounded=0;exitX=0.5;exitY=1;exitDx=0;exitDy=0;entryX=0.5;entryY=0;entryDx=0;entryDy=0;" parent="1" source="chapter_entity" target="chapter_section_relation" edge="1">
          <mxGeometry relative="1" as="geometry" />
        </mxCell>
        <mxCell id="section_to_chapter_relation" value="n" style="endArrow=none;html=1;rounded=0;exitX=0.5;exitY=0;exitDx=0;exitDy=0;entryX=0.5;entryY=1;entryDx=0;entryDy=0;" parent="1" source="section_entity" target="chapter_section_relation" edge="1">
          <mxGeometry relative="1" as="geometry" />
        </mxCell>
        <mxCell id="section_to_media_relation" value="1" style="endArrow=none;html=1;rounded=0;exitX=0.5;exitY=1;exitDx=0;exitDy=0;" parent="1" source="section_entity" target="media_entity" edge="1">
          <mxGeometry relative="1" as="geometry" />
        </mxCell>
        <mxCell id="section_to_question_group_relation" value="1" style="endArrow=none;html=1;rounded=0;exitX=0;exitY=0.5;exitDx=0;exitDy=0;entryX=1;entryY=0.5;entryDx=0;entryDy=0;" parent="1" source="section_entity" target="section_question_group_relation" edge="1">
          <mxGeometry relative="1" as="geometry" />
        </mxCell>
        <mxCell id="question_group_to_section_relation" value="1" style="endArrow=none;html=1;rounded=0;entryX=0;entryY=0.5;entryDx=0;entryDy=0;" parent="1" source="question_group_entity" target="section_question_group_relation" edge="1">
          <mxGeometry relative="1" as="geometry" />
        </mxCell>
        <mxCell id="question_group_to_item_relation" value="1" style="endArrow=none;html=1;rounded=0;exitX=0.5;exitY=1;exitDx=0;exitDy=0;entryX=0.5;entryY=0;entryDx=0;entryDy=0;" parent="1" source="question_group_entity" target="question_group_item_relation" edge="1">
          <mxGeometry relative="1" as="geometry" />
        </mxCell>
        <mxCell id="question_group_item_to_group_relation" value="n" style="endArrow=none;html=1;rounded=0;exitX=0.5;exitY=0;exitDx=0;exitDy=0;entryX=0.5;entryY=1;entryDx=0;entryDy=0;" parent="1" source="question_group_item_entity" target="question_group_item_relation" edge="1">
          <mxGeometry relative="1" as="geometry" />
        </mxCell>
        <mxCell id="question_group_item_to_question_relation" value="1" style="endArrow=none;html=1;rounded=0;exitX=0.5;exitY=1;exitDx=0;exitDy=0;entryX=0.5;entryY=0;entryDx=0;entryDy=0;" parent="1" source="question_group_item_entity" target="question_group_item_question_relation" edge="1">
          <mxGeometry relative="1" as="geometry" />
        </mxCell>
        <mxCell id="question_to_group_item_relation" value="1" style="endArrow=none;html=1;rounded=0;exitX=0.5;exitY=0;exitDx=0;exitDy=0;entryX=0.5;entryY=1;entryDx=0;entryDy=0;" parent="1" source="question_entity" target="question_group_item_question_relation" edge="1">
          <mxGeometry relative="1" as="geometry" />
        </mxCell>
        <mxCell id="user_to_order_relation" value="1" style="endArrow=none;html=1;rounded=0;exitX=1;exitY=0.75;exitDx=0;exitDy=0;entryX=0;entryY=0;entryDx=0;entryDy=0;" parent="1" source="user_entity" target="user_course_order_relation" edge="1">
          <mxGeometry relative="1" as="geometry" />
        </mxCell>
        <mxCell id="course_to_order_relation" value="1" style="endArrow=none;html=1;rounded=0;exitX=0.25;exitY=1;exitDx=0;exitDy=0;entryX=1;entryY=0;entryDx=0;entryDy=0;" parent="1" source="course_entity" target="user_course_order_relation" edge="1">
          <mxGeometry relative="1" as="geometry" />
        </mxCell>
        <mxCell id="order_to_user_course_relation" value="n" style="endArrow=none;html=1;rounded=0;exitX=0.5;exitY=1;exitDx=0;exitDy=0;" parent="1" source="order_entity" edge="1">
          <mxGeometry relative="1" as="geometry">
            <Array as="points" />
            <mxPoint x="370" y="390" as="targetPoint" />
          </mxGeometry>
        </mxCell>
        <mxCell id="user_to_usercourse_relation" value="1" style="endArrow=none;html=1;rounded=0;exitX=0.5;exitY=1;exitDx=0;exitDy=0;entryX=0.5;entryY=0;entryDx=0;entryDy=0;" parent="1" source="user_entity" target="user_learn_course_relation" edge="1">
          <mxGeometry relative="1" as="geometry" />
        </mxCell>
        <mxCell id="course_to_usercourse_relation" value="n" style="endArrow=none;html=1;rounded=0;exitX=0.5;exitY=1;exitDx=0;exitDy=0;entryX=1;entryY=0.5;entryDx=0;entryDy=0;" parent="1" source="course_entity" target="user_learn_course_relation" edge="1">
          <mxGeometry relative="1" as="geometry">
            <Array as="points">
              <mxPoint x="670" y="460" />
            </Array>
          </mxGeometry>
        </mxCell>
        <mxCell id="usercourse_to_relation" value="1" style="endArrow=none;html=1;rounded=0;exitX=0.5;exitY=0;exitDx=0;exitDy=0;entryX=0.5;entryY=1;entryDx=0;entryDy=0;" parent="1" source="user_course_entity" target="user_learn_course_relation" edge="1">
          <mxGeometry relative="1" as="geometry" />
        </mxCell>
        <mxCell id="user_to_favorite_relation" value="1" style="endArrow=none;html=1;rounded=0;exitX=1;exitY=0.25;exitDx=0;exitDy=0;entryX=0;entryY=0.5;entryDx=0;entryDy=0;" parent="1" source="user_entity" target="user_favorite_relation" edge="1">
          <mxGeometry relative="1" as="geometry" />
        </mxCell>
        <mxCell id="course_to_favorite_relation" value="n" style="endArrow=none;html=1;rounded=0;exitX=0.25;exitY=0;exitDx=0;exitDy=0;entryX=1;entryY=0.5;entryDx=0;entryDy=0;" parent="1" source="course_entity" target="user_favorite_relation" edge="1">
          <mxGeometry relative="1" as="geometry" />
        </mxCell>
        <mxCell id="favorite_entity_relation" value="1" style="endArrow=none;html=1;rounded=0;exitX=0.5;exitY=1;exitDx=0;exitDy=0;entryX=0.5;entryY=0;entryDx=0;entryDy=0;" parent="1" source="user_favorite_entity" target="user_favorite_relation" edge="1">
          <mxGeometry relative="1" as="geometry" />
        </mxCell>
        <mxCell id="user_to_review_relation" value="1" style="endArrow=none;html=1;rounded=0;exitX=1;exitY=0.5;exitDx=0;exitDy=0;entryX=0;entryY=0.5;entryDx=0;entryDy=0;" parent="1" source="user_entity" target="course_review_entity" edge="1">
          <mxGeometry relative="1" as="geometry" />
        </mxCell>
        <mxCell id="course_to_review_relation" value="1" style="endArrow=none;html=1;rounded=0;exitX=0;exitY=0.5;exitDx=0;exitDy=0;entryX=1;entryY=0.5;entryDx=0;entryDy=0;" parent="1" source="course_entity" target="course_review_relation" edge="1">
          <mxGeometry relative="1" as="geometry" />
        </mxCell>
        <mxCell id="review_entity_relation" value="n" style="endArrow=none;html=1;rounded=0;exitX=1;exitY=0.5;exitDx=0;exitDy=0;entryX=0;entryY=0.5;entryDx=0;entryDy=0;" parent="1" source="course_review_entity" target="course_review_relation" edge="1">
          <mxGeometry relative="1" as="geometry" />
        </mxCell>
        <mxCell id="user_to_wrong_question_relation" value="1" style="endArrow=none;html=1;rounded=0;exitX=0.5;exitY=1;exitDx=0;exitDy=0;entryX=0.5;entryY=0;entryDx=0;entryDy=0;" parent="1" source="user_course_entity" target="user_wrong_question_relation" edge="1">
          <mxGeometry relative="1" as="geometry" />
        </mxCell>
        <mxCell id="wrong_question_to_user_relation" value="n" style="endArrow=none;html=1;rounded=0;exitX=0;exitY=0.5;exitDx=0;exitDy=0;entryX=1;entryY=0.5;entryDx=0;entryDy=0;" parent="1" source="user_wrong_question_entity" target="user_wrong_question_relation" edge="1">
          <mxGeometry relative="1" as="geometry">
            <Array as="points" />
          </mxGeometry>
        </mxCell>
        <mxCell id="wrong_question_to_question_relation" value="n" style="endArrow=none;html=1;rounded=0;exitX=0.5;exitY=1;exitDx=0;exitDy=0;entryX=0.5;entryY=0;entryDx=0;entryDy=0;" parent="1" source="user_wrong_question_entity" target="wrong_question_relation" edge="1">
          <mxGeometry relative="1" as="geometry" />
        </mxCell>
        <mxCell id="question_to_wrong_question_relation" value="1" style="endArrow=none;html=1;rounded=0;exitX=0;exitY=0.5;exitDx=0;exitDy=0;entryX=1;entryY=0.5;entryDx=0;entryDy=0;" parent="1" source="question_entity" target="wrong_question_relation" edge="1">
          <mxGeometry relative="1" as="geometry" />
        </mxCell>
      </root>
    </mxGraphModel>
  </diagram>
</mxfile>
